<?xml version="1.0" encoding="UTF-8" standalone="no"?>
<!-- Generator: Adobe Illustrator 18.0.0, SVG Export Plug-In . SVG Version: 6.00 Build 0)  -->
<!DOCTYPE svg  PUBLIC '-//W3C//DTD SVG 1.1//EN'  'http://www.w3.org/Graphics/SVG/1.1/DTD/svg11.dtd'>
<svg id="Layer_1" xmlns="http://www.w3.org/2000/svg" xml:space="preserve" viewBox="0 0 212 37.8" version="1.1" y="0px" x="0px" xmlns:xlink="http://www.w3.org/1999/xlink" enable-background="new 0 0 212 37.8">
	<path fill="#585858" d="m10.5 14.2c-3.9 0-6.6 3.2-6.6 7.3 0 1.6 0.5 3.5 1.5 4.8 1.3 1.5 3.2 2.4 5.2 2.4 1.9 0 4-0.6 5.3-2.4 0.9-1.2 3.1 0.2 1.8 1.6-1.7 2.1-4.4 3.1-7.1 3.1s-5.4-1.1-7.2-3.2c-1.5-1.9-2.3-4.4-2.1-7.1 0.3-5.3 4.1-9 9.5-9 2.6 0 4.7 0.9 6.6 3.1 1 1.2-0.9 2.7-1.9 1.5-1.4-1.5-3.2-2.1-5-2.1z"/>
	<path fill="#585858" d="m19.5 13.8c-0.5-1.5 1.8-2.4 2.5-1 2.5 5 4.5 9 7.1 14l7.1-14.1c0.5-1.3 3-0.6 2.3 0.9l-8.3 16.5c-0.5 0.9-1.7 1.2-2.4 0l-8.3-16.3z"/>
	<path fill="#585858" d="m72 20c-0.1-3.1-2.6-5.3-5.6-5.3-3.8 0-6.8 2.8-6.8 6.9v7.9c0 0.8-0.5 1.3-1.3 1.3s-1.3-0.5-1.3-1.3v-8.9c0-2.1-0.8-4-2.5-5.1-0.9-0.6-2-0.8-3.1-0.8-3.5 0-6.7 2.7-6.7 6.7v8.1c0 1.7-2.6 1.6-2.6 0v-16c0-0.7 0.6-1.3 1.3-1.3 0.8 0 1.3 0.6 1.3 1.3v2.5c1.4-2.6 4-3.7 6.8-3.7 3.1 0 6.2 1.5 7.3 4.8 1.3-3.2 4.4-4.8 7.6-4.8 4.1 0 8.3 2.8 8.3 7.7v9.6c0 0.8-0.5 1.3-1.3 1.3s-1.3-0.5-1.3-1.3v-9.6z"/>
	<path fill="#585858" d="m84.6 12.7c1.2-0.5 2.5-0.7 3.9-0.7 2.1 0 4.4 0.7 5.7 2.8v-1.4c0-0.8 0.5-1.3 1.3-1.3s1.3 0.5 1.3 1.3v16c0 0.8-0.5 1.3-1.3 1.3s-1.3-0.5-1.3-1.3v-1.7c-1 2.1-3.7 3.3-5.8 3.3-1.7 0-3.7-0.5-5.2-1.5-2.7-1.9-4.1-4.9-4-8.5 0-3.6 2-7 5.4-8.3zm9.5 10.2v-2.8c0-3.6-2.5-5.4-5.7-5.5-2.6 0-5.1 1.3-6.2 3.9-0.3 0.8-0.5 1.7-0.5 2.7-0.1 2.3 0.7 4.5 2.6 6.1 1.1 0.8 2.4 1.3 3.7 1.4 3.4-0.2 6-2.2 6.1-5.8z"/>
	<path fill="#585858" d="m110.8 31c-2.4 0-4.8-1-5.8-2.9v7.7c0 1.7-2.6 1.7-2.6 0v-22.3c0-0.8 0.5-1.3 1.3-1.3s1.2 0.5 1.2 1.3v1.7c1.2-2.2 3.7-3.2 5.9-3.2 1.1 0 2.3 0.2 3.5 0.7 3.9 1.6 5.9 5.2 5.8 9.4-0.2 5-3.9 8.9-9.3 8.9zm-5.8-10.9v2.9c0 3.2 2.4 5.4 5.7 5.5 2.6 0 5.1-1.4 6.2-3.9 0.3-0.8 0.5-1.7 0.5-2.7 0-2.3-0.7-4.5-2.7-6.1-1-0.8-2.3-1.3-3.7-1.4-3.2 0.1-6 2.2-6 5.7z"/>
	<path fill="#585858" d="m125.8 26.1c0.4 1.6 3.2 2.4 5.8 2.4 1.8 0 5.5-0.8 5.5-3.3 0-2.3-2.7-2.4-5.7-2.6-3.9-0.4-8.1-0.7-8.1-5.1 0-3.9 4.4-5.5 7.8-5.5 2.8 0 6.6 0.5 7.9 3.7 0.5 1.6-2 2.3-2.4 0.9-0.8-2.1-3.8-2.2-5.4-2.2-2.1 0-5.2 0.9-5.2 3.1 0 2.3 2.7 2.3 5.5 2.5 4 0.4 8.2 0.7 8.2 5.2s-5.2 5.7-8.2 5.7-7.6-0.8-8.3-4.4c-0.3-1.5 2.3-2.2 2.6-0.4z"/>
	<path fill="#585858" d="m145.1 29.1c0 0.9-0.6 1.5-1.5 1.5s-1.6-0.6-1.6-1.5 0.7-1.5 1.6-1.5 1.5 0.6 1.5 1.5z"/>
	<path fill="#585858" d="m151.4 29.5c0 0.7-0.6 1.2-1.3 1.2-0.8 0-1.3-0.5-1.3-1.2v-21.6c0-0.7 0.5-1.2 1.3-1.2 0.7 0 1.3 0.5 1.3 1.2v21.6z"/>
	<path fill="#585858" d="m164.2 12.3c1.6 0 1.6 2.3 0 2.3h-3.9v9.7c0 2.1 0.3 4.2 2.8 4.2 0.5 0 1.3-0.2 1.7-0.4 1.5-0.9 2.7 1.3 1.1 2.2-0.9 0.5-1.8 0.6-2.8 0.6-4.3 0-5.4-3.2-5.4-6.6v-9.7h-2.4c-1.7 0-1.6-2.3 0-2.3h2.4v-4.2c0-1.7 2.6-1.7 2.6 0v4.2h3.9z"/>
		<defs>
			<rect id="SVGID_1_" y="5.2" x="173.5" height="27.8" width="38.5"/>
		</defs>
		<clipPath id="SVGID_2_">
			<use overflow="visible" xlink:href="#SVGID_1_"/>
		</clipPath>
		<path  fill="#8bc34a" d="m173.5 19.1c0 7.7 6.2 13.9 13.9 13.9 2.7 0 5.2-0.9 7.3-2l15.7-9.1c1-0.6 1.5-1.7 1.5-2.8s-0.5-2.2-1.5-2.8l-15.7-9.1c-2.1-1.2-4.6-2-7.3-2-7.7 0-13.9 6.2-13.9 13.9zm18 0c0 2.8-2.3 5.1-5.1 5.1s-5.1-2.3-5.1-5.1 2.3-5.1 5.1-5.1c2.8 0 5.1 2.3 5.1 5.1z" clip-path="url(#SVGID_2_)"/>
</svg>
